<svg width="29" height="28" viewBox="0 0 29 28" fill="currentColor" xmlns="http://www.w3.org/2000/svg">
<g id="floppy">
<rect id="Rectangle 18" x="0.5" width="2.15385" height="2.15385" fill="currentColor"/>
<rect id="Rectangle 17" x="0.5" y="2.15396" width="2.15385" height="2.15385" fill="currentColor"/>
<rect id="Rectangle 19" x="0.5" y="4.30762" width="2.15385" height="2.15385" fill="currentColor"/>
<rect id="Rectangle 20" x="0.5" y="6.46158" width="2.15385" height="2.15385" fill="currentColor"/>
<rect id="Rectangle 21" x="0.5" y="8.61523" width="2.15385" height="2.15385" fill="currentColor"/>
<rect id="Rectangle 22" x="0.5" y="10.7692" width="2.15385" height="2.15385" fill="currentColor"/>
<rect id="Rectangle 23" x="0.5" y="12.9232" width="2.15385" height="2.15385" fill="currentColor"/>
<rect id="Rectangle 24" x="0.5" y="15.0768" width="2.15385" height="2.15385" fill="currentColor"/>
<rect id="Rectangle 25" x="0.5" y="17.2308" width="2.15385" height="2.15385" fill="currentColor"/>
<rect id="Rectangle 26" x="0.5" y="19.3848" width="2.15385" height="2.15385" fill="currentColor"/>
<rect id="Rectangle 27" x="0.5" y="21.5384" width="2.15385" height="2.15385" fill="currentColor"/>
<rect id="Rectangle 28" x="0.5" y="23.6924" width="2.15385" height="2.15385" fill="currentColor"/>
<rect id="Rectangle 29" x="0.5" y="25.846" width="2.15385" height="2.15385" fill="currentColor"/>
<rect id="Rectangle 32" x="24.1927" width="2.15385" height="2.15385" transform="rotate(90 24.1927 0)" fill="currentColor"/>
<rect id="Rectangle 33" x="22.0391" width="2.15385" height="2.15385" transform="rotate(90 22.0391 0)" fill="currentColor"/>
<rect id="Rectangle 34" x="19.8842" width="2.15385" height="2.15385" transform="rotate(90 19.8842 0)" fill="currentColor"/>
<rect id="Rectangle 35" x="17.7305" width="2.15385" height="2.15385" transform="rotate(90 17.7305 0)" fill="currentColor"/>
<rect id="Rectangle 36" x="15.5768" width="2.15385" height="2.15385" transform="rotate(90 15.5768 0)" fill="currentColor"/>
<rect id="Rectangle 37" x="13.4232" width="2.15385" height="2.15385" transform="rotate(90 13.4232 0)" fill="currentColor"/>
<rect id="Rectangle 38" x="11.2695" width="2.15385" height="2.15385" transform="rotate(90 11.2695 0)" fill="currentColor"/>
<rect id="Rectangle 39" x="9.11584" width="2.15385" height="2.15385" transform="rotate(90 9.11584 0)" fill="currentColor"/>
<rect id="Rectangle 40" x="6.96094" width="2.15385" height="2.15385" transform="rotate(90 6.96094 0)" fill="currentColor"/>
<rect id="Rectangle 41" x="4.80725" width="2.15385" height="2.15385" transform="rotate(90 4.80725 0)" fill="currentColor"/>
<rect id="Rectangle 65" x="26.3463" y="2.15396" width="2.15385" height="2.15385" transform="rotate(90 26.3463 2.15396)" fill="currentColor"/>
<rect id="Rectangle 85" x="6.96094" y="4.30762" width="2.15385" height="2.15385" transform="rotate(90 6.96094 4.30762)" fill="currentColor"/>
<rect id="Rectangle 176" x="6.96094" y="2.15396" width="2.15385" height="2.15385" transform="rotate(90 6.96094 2.15396)" fill="currentColor"/>
<rect id="Rectangle 96" x="6.96094" y="6.46158" width="2.15385" height="2.15385" transform="rotate(90 6.96094 6.46158)" fill="currentColor"/>
<rect id="Rectangle 177" x="22.0391" y="4.30762" width="2.15385" height="2.15385" transform="rotate(90 22.0391 4.30762)" fill="currentColor"/>
<rect id="Rectangle 178" x="22.0391" y="2.15396" width="2.15385" height="2.15385" transform="rotate(90 22.0391 2.15396)" fill="currentColor"/>
<rect id="Rectangle 179" x="22.0391" y="6.46158" width="2.15385" height="2.15385" transform="rotate(90 22.0391 6.46158)" fill="currentColor"/>
<rect id="Rectangle 180" x="17.7305" y="4.30762" width="2.15385" height="2.15385" transform="rotate(90 17.7305 4.30762)" fill="currentColor"/>
<rect id="Rectangle 181" x="17.7305" y="2.15396" width="2.15385" height="2.15385" transform="rotate(90 17.7305 2.15396)" fill="currentColor"/>
<rect id="Rectangle 182" x="17.7305" y="6.46158" width="2.15385" height="2.15385" transform="rotate(90 17.7305 6.46158)" fill="currentColor"/>
<rect id="Rectangle 100" x="22.0391" y="8.61523" width="2.15385" height="2.15385" transform="rotate(90 22.0391 8.61523)" fill="currentColor"/>
<rect id="Rectangle 101" x="19.8842" y="8.61523" width="2.15385" height="2.15385" transform="rotate(90 19.8842 8.61523)" fill="currentColor"/>
<rect id="Rectangle 102" x="17.7305" y="8.61523" width="2.15385" height="2.15385" transform="rotate(90 17.7305 8.61523)" fill="currentColor"/>
<rect id="Rectangle 103" x="15.5768" y="8.61523" width="2.15385" height="2.15385" transform="rotate(90 15.5768 8.61523)" fill="currentColor"/>
<rect id="Rectangle 104" x="13.4232" y="8.61523" width="2.15385" height="2.15385" transform="rotate(90 13.4232 8.61523)" fill="currentColor"/>
<rect id="Rectangle 105" x="11.2695" y="8.61523" width="2.15385" height="2.15385" transform="rotate(90 11.2695 8.61523)" fill="currentColor"/>
<rect id="Rectangle 106" x="9.11584" y="8.61523" width="2.15385" height="2.15385" transform="rotate(90 9.11584 8.61523)" fill="currentColor"/>
<rect id="Rectangle 107" x="6.96094" y="8.61523" width="2.15385" height="2.15385" transform="rotate(90 6.96094 8.61523)" fill="currentColor"/>
<rect id="Rectangle 132" x="24.1927" y="15.0768" width="2.15385" height="2.15385" transform="rotate(90 24.1927 15.0768)" fill="currentColor"/>
<rect id="Rectangle 133" x="22.0391" y="15.0768" width="2.15385" height="2.15385" transform="rotate(90 22.0391 15.0768)" fill="currentColor"/>
<rect id="Rectangle 134" x="19.8842" y="15.0768" width="2.15385" height="2.15385" transform="rotate(90 19.8842 15.0768)" fill="currentColor"/>
<rect id="Rectangle 135" x="17.7305" y="15.0768" width="2.15385" height="2.15385" transform="rotate(90 17.7305 15.0768)" fill="currentColor"/>
<rect id="Rectangle 136" x="15.5768" y="15.0768" width="2.15385" height="2.15385" transform="rotate(90 15.5768 15.0768)" fill="currentColor"/>
<rect id="Rectangle 137" x="13.4232" y="15.0768" width="2.15385" height="2.15385" transform="rotate(90 13.4232 15.0768)" fill="currentColor"/>
<rect id="Rectangle 138" x="11.2695" y="15.0768" width="2.15385" height="2.15385" transform="rotate(90 11.2695 15.0768)" fill="currentColor"/>
<rect id="Rectangle 139" x="9.11584" y="15.0768" width="2.15385" height="2.15385" transform="rotate(90 9.11584 15.0768)" fill="currentColor"/>
<rect id="Rectangle 140" x="6.96094" y="15.0768" width="2.15385" height="2.15385" transform="rotate(90 6.96094 15.0768)" fill="currentColor"/>
<rect id="Rectangle 143" x="24.1927" y="17.2308" width="2.15385" height="2.15385" transform="rotate(90 24.1927 17.2308)" fill="currentColor"/>
<rect id="Rectangle 151" x="6.96094" y="17.2308" width="2.15385" height="2.15385" transform="rotate(90 6.96094 17.2308)" fill="currentColor"/>
<rect id="Rectangle 154" x="24.1927" y="19.3848" width="2.15385" height="2.15385" transform="rotate(90 24.1927 19.3848)" fill="currentColor"/>
<rect id="Rectangle 162" x="6.96094" y="19.3848" width="2.15385" height="2.15385" transform="rotate(90 6.96094 19.3848)" fill="currentColor"/>
<rect id="Rectangle 165" x="24.1927" y="21.5384" width="2.15385" height="2.15385" transform="rotate(90 24.1927 21.5384)" fill="currentColor"/>
<rect id="Rectangle 173" x="6.96094" y="21.5384" width="2.15385" height="2.15385" transform="rotate(90 6.96094 21.5384)" fill="currentColor"/>
<rect id="Rectangle 174" x="6.96094" y="23.6924" width="2.15385" height="2.15385" transform="rotate(90 6.96094 23.6924)" fill="currentColor"/>
<rect id="Rectangle 175" x="24.1927" y="23.6924" width="2.15385" height="2.15385" transform="rotate(90 24.1927 23.6924)" fill="currentColor"/>
<rect id="Rectangle 54" x="26.3463" y="25.846" width="2.15385" height="2.15385" transform="rotate(90 26.3463 25.846)" fill="currentColor"/>
<rect id="Rectangle 55" x="24.1927" y="25.846" width="2.15385" height="2.15385" transform="rotate(90 24.1927 25.846)" fill="currentColor"/>
<rect id="Rectangle 56" x="22.0391" y="25.846" width="2.15385" height="2.15385" transform="rotate(90 22.0391 25.846)" fill="currentColor"/>
<rect id="Rectangle 57" x="19.8842" y="25.846" width="2.15385" height="2.15385" transform="rotate(90 19.8842 25.846)" fill="currentColor"/>
<rect id="Rectangle 58" x="17.7305" y="25.846" width="2.15385" height="2.15385" transform="rotate(90 17.7305 25.846)" fill="currentColor"/>
<rect id="Rectangle 59" x="15.5768" y="25.846" width="2.15385" height="2.15385" transform="rotate(90 15.5768 25.846)" fill="currentColor"/>
<rect id="Rectangle 60" x="13.4232" y="25.846" width="2.15385" height="2.15385" transform="rotate(90 13.4232 25.846)" fill="currentColor"/>
<rect id="Rectangle 61" x="11.2695" y="25.846" width="2.15385" height="2.15385" transform="rotate(90 11.2695 25.846)" fill="currentColor"/>
<rect id="Rectangle 62" x="9.11584" y="25.846" width="2.15385" height="2.15385" transform="rotate(90 9.11584 25.846)" fill="currentColor"/>
<rect id="Rectangle 63" x="6.96094" y="25.846" width="2.15385" height="2.15385" transform="rotate(90 6.96094 25.846)" fill="currentColor"/>
<rect id="Rectangle 64" x="4.80725" y="25.846" width="2.15385" height="2.15385" transform="rotate(90 4.80725 25.846)" fill="currentColor"/>
<rect id="Rectangle 42" x="28.5" y="28" width="2.15385" height="2.15385" transform="rotate(-180 28.5 28)" fill="currentColor"/>
<rect id="Rectangle 43" x="28.5" y="25.846" width="2.15385" height="2.15385" transform="rotate(-180 28.5 25.846)" fill="currentColor"/>
<rect id="Rectangle 44" x="28.5" y="23.6924" width="2.15385" height="2.15385" transform="rotate(-180 28.5 23.6924)" fill="currentColor"/>
<rect id="Rectangle 45" x="28.5" y="21.5384" width="2.15385" height="2.15385" transform="rotate(-180 28.5 21.5384)" fill="currentColor"/>
<rect id="Rectangle 46" x="28.5" y="19.3848" width="2.15385" height="2.15385" transform="rotate(-180 28.5 19.3848)" fill="currentColor"/>
<rect id="Rectangle 47" x="28.5" y="17.2308" width="2.15385" height="2.15385" transform="rotate(-180 28.5 17.2308)" fill="currentColor"/>
<rect id="Rectangle 48" x="28.5" y="15.0768" width="2.15385" height="2.15385" transform="rotate(-180 28.5 15.0768)" fill="currentColor"/>
<rect id="Rectangle 49" x="28.5" y="12.9232" width="2.15385" height="2.15385" transform="rotate(-180 28.5 12.9232)" fill="currentColor"/>
<rect id="Rectangle 50" x="28.5" y="10.7692" width="2.15385" height="2.15385" transform="rotate(-180 28.5 10.7692)" fill="currentColor"/>
<rect id="Rectangle 51" x="28.5" y="8.61523" width="2.15385" height="2.15385" transform="rotate(-180 28.5 8.61523)" fill="currentColor"/>
<rect id="Rectangle 52" x="28.5" y="6.46158" width="2.15385" height="2.15385" transform="rotate(-180 28.5 6.46158)" fill="currentColor"/>
</g>
</svg>
